
<svg width="513px" height="426px" viewBox="0 0 513 426" version="1.1" xmlns="http://www.w3.org/2000/svg" xmlns:xlink="http://www.w3.org/1999/xlink">
    <g id="Page-1" stroke="none" stroke-width="1" fill="none" fill-rule="evenodd">
        <g id="respect" transform="translate(1.000000, 0.000000)">
            <path d="M316.252292,137.902046 L255.765176,52.9588768 L255.390908,52.5846091 C244.038122,41.2318228 231.258441,32.1753244 217.628859,25.4151149 C183.929173,27.5398635 150.837672,41.4735378 125.083378,67.2239337 C68.9432256,123.367984 68.9432256,214.389105 125.083378,270.529257 L128.845547,274.291426 L317.975482,395.858247 C320.973522,386.34561 318.708423,375.530834 311.168489,367.9909 L269.624776,326.447188 L269.975652,326.092413 L311.523263,367.636125 C322.314648,378.42751 339.807763,378.42751 350.599148,367.636125 C361.390533,356.848639 361.390533,339.351625 350.599148,328.56024 C361.390533,339.351625 378.887547,339.351625 389.678932,328.56024 C400.470316,317.768855 400.470316,300.271841 389.678932,289.484355 C400.470316,300.271841 417.967331,300.271841 428.754817,289.480456 C439.546202,278.689072 439.546202,261.195956 428.754817,250.404571 L316.252292,137.902046 Z" id="Path" fill="#FCCAA4"></path>
            <path d="M470.07241,65.1732582 C466.64942,60.8535854 462.953526,56.6820607 458.961338,52.6898721 C402.821186,-3.45027993 311.796167,-3.45027993 255.656015,52.6898721 L186.93501,121.410877 C174.085153,134.260734 174.085153,155.098866 186.93501,167.948723 C199.788767,180.79858 220.623001,180.79858 233.472858,167.948723 L263.574116,137.847466 L265.468845,137.847466 L308.903389,94.4129208 C352.486081,50.8302299 417.086243,41.087574 470.07241,65.1732582 Z" id="Path" fill="#9C7A60"></path>
            <path d="M352.696607,112.444046 L330.384795,131.032674 C335.554368,128.30364 340.337976,124.802677 344.544589,120.596064 L352.696607,112.444046 Z" id="Path" fill="#FCC69D"></path>
            <path d="M330.384795,131.032674 L352.696607,112.444046 L344.544589,120.596064 C340.337976,124.802677 335.554368,128.30364 330.384795,131.032674 L317.215251,142.003396 L434.863957,259.652102 L439.604681,275.351851 L458.961338,255.995195 C511.109301,203.847232 514.805194,121.601909 470.07241,65.1732582 C417.082344,41.0914724 352.486081,50.8302299 308.903389,94.4129208 L265.468845,137.847466 L302.891715,137.847466 C312.564195,137.847466 321.987164,135.465407 330.384795,131.032674 Z" id="Path" fill="#B28A6C"></path>
            <path d="M203.309221,345.901309 L186.104604,363.102028 C175.317118,373.893413 175.317118,391.390427 186.104604,402.177913 C196.895989,412.969298 214.393003,412.969298 225.184388,402.177913 L242.385107,384.977194 C253.176491,374.189708 253.176491,356.692694 242.385107,345.901309 C231.593722,335.109924 214.100606,335.109924 203.309221,345.901309 Z" id="Path" stroke="#979797" fill="#8B664A"></path>
            <path d="M164.229438,306.825424 L147.028719,324.026143 C136.237334,334.817528 136.237334,352.310643 147.028719,363.102028 C157.820104,373.893413 175.317118,373.893413 186.104604,363.102028 L203.309221,345.901309 C214.096708,335.109924 214.096708,317.616809 203.309221,306.825424 C192.517837,296.034039 175.020822,296.034039 164.229438,306.825424 Z" id="Path" fill="#8B664A"></path>
            <path d="M125.153553,267.74564 L107.952834,284.946359 C97.1614488,295.737744 97.1614488,313.234758 107.952834,324.026143 C118.74032,334.813629 136.237334,334.813629 147.028719,324.026143 L164.229438,306.821526 C175.020822,296.034039 175.020822,278.537025 164.229438,267.74564 C153.438053,256.954255 135.941039,256.954255 125.153553,267.74564 Z" id="Path" fill="#8B664A"></path>
            <path d="M86.0737698,228.669756 L68.8730499,245.870474 C58.0816652,256.661859 58.0816652,274.154974 68.8730499,284.946359 C79.6644347,295.737744 97.1614488,295.737744 107.952834,284.946359 L125.153553,267.74564 C135.941039,256.954255 135.941039,239.461141 125.153553,228.669756 C114.362169,217.878371 96.8651545,217.878371 86.0737698,228.669756 Z" id="Path" fill="#8B664A"></path>
            <path d="M459.787845,42.3234369 C457.156276,42.3234369 454.590983,43.383862 452.723543,45.251302 C450.867799,47.1070459 449.807374,49.6723385 449.807374,52.3078067 C449.807374,54.9315789 450.867799,57.5085685 452.723543,59.3643124 C454.590983,61.2200564 457.156276,62.2882782 459.787845,62.2882782 C462.415516,62.2882782 464.98081,61.2200564 466.84825,59.3643124 C468.703993,57.5085685 469.76052,54.9315789 469.76052,52.3078067 C469.76052,49.6723385 468.703993,47.1070459 466.84825,45.251302 C464.98081,43.383862 462.415516,42.3234369 459.787845,42.3234369 Z" id="Path" fill="#000000"></path>
            <path d="M230.548891,277.390831 C227.913423,277.390831 225.348129,278.451256 223.484589,280.314797 C221.628845,282.17054 220.56842,284.739732 220.56842,287.371302 C220.56842,289.998973 221.628845,292.572063 223.484589,294.427807 C225.348129,296.28745 227.913423,297.355672 230.548891,297.355672 C233.176562,297.355672 235.737957,296.28745 237.605396,294.427807 C239.461141,292.572063 240.521566,289.998973 240.521566,287.371302 C240.521566,284.735834 239.461141,282.17054 237.605396,280.314797 C235.741855,278.451256 233.176562,277.390831 230.548891,277.390831 Z" id="Path" fill="#000000"></path>
            <path d="M491.023602,78.3973829 C488.298465,73.6059772 482.201021,71.9334687 477.413514,74.6547061 C472.61821,77.3798429 470.945701,83.4733889 473.670837,88.2647946 C503.315956,140.401062 494.36862,206.474902 451.900934,248.938689 L444.333709,256.505914 C442.505256,251.706711 439.674856,247.207701 435.815221,243.348066 L333.258079,140.794823 C339.967606,137.496589 346.162517,133.091146 351.604993,127.65257 L371.273539,107.980124 C375.168262,104.085401 375.168262,97.761837 371.273539,93.8671137 C367.374917,89.9684921 361.055252,89.9684921 357.15663,93.8671137 L337.488084,113.53566 C328.244452,122.775394 315.959895,127.866994 302.891715,127.866994 L263.574116,127.866994 C260.926951,127.866994 258.388948,128.919621 256.513711,130.79096 L226.412454,160.888319 C217.476813,169.827858 202.931055,169.827858 193.991516,160.888319 C185.051976,151.952678 185.051976,137.406921 193.991516,128.467381 L262.712519,59.7463769 C304.708473,17.7504242 370.275492,8.51458973 422.150551,37.290316 C426.969249,39.9608716 433.047199,38.2220869 435.717755,33.3994921 C438.39221,28.5807957 436.653424,22.5028443 431.830829,19.8283903 C403.218844,3.96099962 369.511362,-2.38985484 336.907189,1.95320921 C306.392678,6.01947186 278.462951,18.7913565 255.570245,39.0641891 C227.449487,14.1325033 191.644545,0.499023574 153.738246,0.499023574 C112.674065,0.499023574 74.066015,16.4911702 45.0290808,45.5281044 C15.9921466,74.5650386 0,113.173088 0,154.241169 C0,195.305351 15.9921466,233.913402 45.0290808,262.950336 L48.7912505,266.712506 C49.4462189,267.367474 50.171362,267.901585 50.9393903,268.334332 C51.6060548,276.96978 55.2278751,285.418092 61.8165452,292.006763 C69.1498523,299.34007 78.7794484,303.004775 88.4129428,303.004775 C88.9119663,303.004775 89.4148883,302.98918 89.9139119,302.969687 C89.894418,303.476508 89.8749251,303.979431 89.8749251,304.486251 C89.8749251,314.533 93.7891413,323.979359 100.89243,331.082648 C108.225738,338.415956 117.855334,342.084558 127.488827,342.084558 C127.987851,342.084558 128.490774,342.065065 128.989797,342.045573 C128.970303,342.552393 128.954709,343.055315 128.954709,343.566035 C128.954709,353.612783 132.865027,363.055245 139.972214,370.162432 C147.305521,377.491841 156.935117,381.160444 166.568611,381.160444 C167.075432,381.160444 167.578354,381.144849 168.085174,381.125356 C167.679718,391.253975 171.332727,401.519046 179.048099,409.238316 C186.151388,416.341606 195.597748,420.255822 205.644496,420.255822 C215.691244,420.255822 225.137604,416.341606 232.240892,409.238316 L246.190161,395.289049 L265.0322,414.127188 C272.135489,421.234376 281.581848,425.144693 291.628597,425.144693 C301.675345,425.144693 311.121706,421.234376 318.224994,414.131087 C326.037832,406.318249 329.686941,395.897233 329.176222,385.647757 C329.803901,385.678946 330.431578,385.698439 331.059256,385.698439 C340.692751,385.698439 350.326245,382.029836 357.659552,374.696529 C365.371026,366.985055 369.020136,356.727781 368.618578,346.599163 C369.125398,346.618656 369.63222,346.638148 370.13904,346.638148 C380.185789,346.638148 389.632148,342.723932 396.735437,335.620644 C404.446911,327.905272 408.09992,317.647998 407.698362,307.523277 C408.201283,307.54277 408.708104,307.558365 409.214925,307.558365 C419.261673,307.558365 428.708033,303.648048 435.811322,296.544759 C439.421446,292.934635 442.134887,288.767008 443.967239,284.318681 C444.941894,283.846948 445.854171,283.215371 446.661186,282.408357 L466.017843,263.055598 C514.816891,214.256551 525.097556,138.323097 491.023602,78.3973829 Z M88.4129428,283.059426 C83.69561,283.059426 79.2667758,281.223176 75.9295557,277.889854 C72.5962339,274.552634 70.7599838,270.1238 70.7599838,265.406467 C70.7599838,260.693034 72.5962339,256.260301 75.933454,252.92698 L93.1302745,235.726261 C96.4635963,232.392939 100.896329,230.556688 105.613661,230.556688 C110.327095,230.556688 114.759828,232.392939 118.093149,235.726261 C124.978115,242.607328 124.978115,253.804169 118.093149,260.689136 L100.89243,277.889854 C97.5591087,281.223176 93.1263761,283.059426 88.4129428,283.059426 Z M115.009339,316.96574 C111.676018,313.632418 109.839767,309.199685 109.839767,304.486251 C109.839767,299.772818 111.676018,295.340085 115.009339,292.006763 L132.210058,274.806044 C132.210058,274.806044 132.210058,274.806044 132.210058,274.802146 C135.54338,271.468824 139.976112,269.636472 144.689546,269.636472 C149.406879,269.636472 153.839611,271.468824 157.172933,274.806044 C164.054,281.687111 164.054,292.883953 157.172933,299.76502 L139.972214,316.96574 C133.087248,323.846807 121.890406,323.846807 115.009339,316.96574 Z M154.085225,356.045523 C150.751903,352.712201 148.915652,348.279469 148.915652,343.562136 C148.915652,338.848703 150.751903,334.415969 154.085225,331.082648 L171.289842,313.88193 C174.623164,310.548608 179.051998,308.712357 183.769329,308.712357 C188.482763,308.712357 192.915496,310.548608 196.248817,313.88193 C203.129885,320.762997 203.129885,331.959838 196.248817,338.844803 L179.048099,356.045523 C172.167031,362.92659 160.97019,362.92659 154.085225,356.045523 Z M218.123984,395.125307 C214.790663,398.458628 210.361829,400.294879 205.644496,400.294879 C200.931063,400.294879 196.498329,398.458628 193.165008,395.125307 C186.283941,388.240341 186.283941,377.043499 193.165008,370.162432 L210.365727,352.961713 C210.365727,352.961713 210.365727,352.961713 210.365727,352.957815 C213.699049,349.624493 218.131781,347.788242 222.845215,347.788242 C227.558648,347.788242 231.991381,349.624493 235.324702,352.961713 C238.661923,356.295035 240.498174,360.727768 240.498174,365.441201 C240.498174,370.154634 238.661923,374.587367 235.324702,377.920689 L218.123984,395.125307 Z M421.698312,282.423951 C418.36499,285.761171 413.932258,287.597422 409.214925,287.597422 C404.501492,287.597422 400.068758,285.761171 396.735437,282.423951 L355.191725,240.880238 C355.187826,240.87634 355.187826,240.87634 355.183927,240.87634 L316.111941,201.800454 C312.21332,197.905732 305.893654,197.905732 301.995032,201.800454 C298.096411,205.699076 298.096411,212.018743 301.995032,215.917364 L382.618529,296.54086 C389.499596,303.421927 389.499596,314.618769 382.618529,321.503734 C379.285207,324.837056 374.852474,326.673307 370.13904,326.673307 C365.421708,326.673307 360.992874,324.837056 357.659552,321.503734 L277.032158,240.880238 C273.133536,236.981616 266.817769,236.981616 262.919147,240.880238 C259.020525,244.77886 259.020525,251.098526 262.919147,254.997148 L301.987235,294.065235 C301.991133,294.065235 301.991133,294.073033 301.995032,294.073033 L343.542643,335.620644 C350.42371,342.501711 350.42371,353.698553 343.542643,360.583518 C336.661575,367.464586 325.460836,367.464586 318.579769,360.583518 L277.032158,319.035907 C276.264129,318.267879 275.402533,317.655795 274.482459,317.191859 L262.634548,305.343948 C258.735926,301.445326 252.41626,301.445326 248.517638,305.343948 C244.619017,309.238671 244.619017,315.558336 248.517638,319.456958 L304.108085,375.051303 C310.99305,381.932371 310.99305,393.129213 304.108085,400.014178 C300.774763,403.3475 296.34203,405.18375 291.628597,405.18375 C286.915163,405.18375 282.48243,403.3475 279.149108,400.014178 L257.995188,378.860256 C259.605318,374.630252 260.459117,370.103953 260.459117,365.441201 C260.459117,355.394453 256.5449,345.948093 249.441612,338.844803 C242.338323,331.741515 232.891963,327.827299 222.845215,327.827299 C222.338394,327.827299 221.831573,327.846792 221.328651,327.866285 C221.72631,317.737666 218.0772,307.480392 210.365727,299.768919 C203.258539,292.66563 193.812179,288.751414 183.769329,288.751414 C183.258611,288.751414 182.755688,288.767008 182.248868,288.786501 C182.650425,278.661781 179.001315,268.404508 171.285943,260.689136 C164.182654,253.585846 154.736294,249.675529 144.689546,249.675529 C144.182726,249.675529 143.675904,249.691124 143.172982,249.710617 C143.574541,239.585897 139.921531,229.328623 132.210058,221.61325 C117.543444,206.946635 93.6799799,206.946635 79.0133657,221.61325 L61.8165452,238.813969 C59.6450132,240.981603 57.8048638,243.355863 56.2766041,245.870474 C32.8302928,220.96608 19.960943,188.591925 19.960943,154.241169 C19.960943,118.506403 33.8790218,84.91198 59.1459896,59.6450132 C84.4129564,34.3780454 118.007379,20.4638649 153.742146,20.4638649 C186.213766,20.4638649 216.91931,31.9570016 241.21552,53.0173564 L179.878506,114.354371 C171.777169,122.455706 167.317146,133.2237 167.317146,144.681749 C167.317146,156.135899 171.777169,166.907791 179.878506,175.009126 C188.23715,183.367771 199.223466,187.550993 210.205884,187.550993 C221.188301,187.550993 232.170718,183.367771 240.533261,175.009126 L267.710553,147.827937 L302.895613,147.827937 C305.800087,147.827937 308.673371,147.629107 311.511568,147.278231 L421.698312,257.464975 C428.579379,264.346042 428.579379,275.542884 421.698312,282.423951 Z" id="Shape" stroke="#979797" fill="#000000" fill-rule="nonzero"></path>
        </g>
    </g>
</svg>
