
<svg width="1142px" height="304px" viewBox="0 0 1142 304" version="1.1" xmlns="http://www.w3.org/2000/svg" xmlns:xlink="http://www.w3.org/1999/xlink">
    <g id="Page-1" stroke="none" stroke-width="1" fill="none" fill-rule="evenodd">
        <g id="Group" transform="translate(0.000000, -203.000000)">
            <g id="hand-(1)">
                <path d="M491.203125,221.09375 C478.597656,210.472656 459.796875,212.023438 449.113281,224.636719 L380.734375,294.917969 L380.804688,294.917969 C377.105469,282.207031 365.363281,272.921875 351.464844,272.921875 L238.214844,272.921875 C223.519531,266.496094 207.273438,262.925781 190.199219,262.925781 C142.890625,262.925781 101.980469,285.859375 82.445312,329.316406 L172.84375,419.253906 L173.011719,419.121094 L188.578125,404.105469 C196.027344,396.910156 205.984375,392.890625 216.339844,392.890625 L349.578125,392.890625 C370.324219,392.890625 390.253906,384.796875 405.125,370.324219 L494.746094,263.179688 C505.386719,250.589844 503.804688,231.746094 491.203125,221.09375 Z" id="Path" fill="#A07950"></path>
                <path d="M122.496094,493.003906 L10.246094,379.894531 L57.804688,332.195312 C65.609375,324.390625 78.277344,324.386719 86.085938,332.195312 L170.914062,417.023438 C178.769531,424.878906 178.675781,437.542969 170.914062,445.304688 L122.496094,493.003906 Z" id="Path" fill="#A96E0D"></path>
                <path d="M235.792969,338.265625 C239.695312,334.355469 239.695312,328.027344 235.792969,324.117188 C231.886719,320.21875 225.558594,320.21875 221.648438,324.117188 C217.75,328.027344 217.75,334.355469 221.648438,338.265625 C225.558594,342.164062 231.886719,342.164062 235.792969,338.265625 Z" id="Path" fill="#000000"></path>
                <path d="M115.652344,500.042969 C119.527344,503.949219 125.835938,503.992188 129.761719,500.125 L178.230469,452.375 C186.464844,444.140625 188.96875,431.949219 185.347656,421.351562 L195.773438,411.296875 C201.386719,405.875 208.777344,402.886719 216.589844,402.886719 L349.492188,402.886719 C373.070312,402.886719 395.355469,393.832031 412.25,377.390625 C412.945312,376.714844 406.972656,383.75 502.917969,269.078125 C517.148438,252.242188 515.019531,226.960938 498.167969,212.714844 C481.421875,198.601562 456.335938,200.628906 442.066406,217.175781 L383.074219,277.808594 C375.625,268.640625 364.265625,262.925781 351.992188,262.925781 L240.511719,262.925781 C224.648438,256.289062 207.816406,252.929688 190.449219,252.929688 C142.308594,252.929688 100.273438,275.164062 77.714844,316.851562 C68.210938,315.050781 58.1875,317.925781 50.976562,325.136719 L3.417969,372.835938 C-0.464844,376.730469 -0.472656,383.03125 3.402344,386.9375 L115.652344,500.042969 Z M190.445312,272.921875 C205.757812,272.921875 220.5625,276.003906 234.457031,282.082031 C235.722656,282.636719 237.085938,282.921875 238.464844,282.921875 L351.992188,282.921875 C362.832031,282.921875 371.988281,291.761719 371.988281,302.914062 C371.988281,313.941406 363.019531,322.910156 351.992188,322.910156 L270.425781,322.910156 C264.90625,322.910156 260.429688,327.386719 260.429688,332.90625 C260.429688,338.429688 264.90625,342.902344 270.425781,342.902344 L351.992188,342.902344 C374.042969,342.902344 391.980469,324.964844 391.980469,302.914062 C391.980469,301.15625 391.855469,299.414062 391.628906,297.6875 C448.695312,239.027344 456.742188,230.785156 457.085938,230.375 C464.210938,221.964844 476.859375,220.898438 485.273438,227.992188 C493.695312,235.113281 494.761719,247.753906 487.617188,256.210938 L397.949219,363.40625 C384.855469,375.976562 367.664062,382.894531 349.492188,382.894531 L216.589844,382.894531 C203.566406,382.894531 191.238281,387.875 181.886719,396.910156 L173.390625,405.109375 L95.070312,326.792969 C113.375,292.453125 147.722656,272.921875 190.445312,272.921875 Z M65.125,339.265625 C68.421875,335.96875 73.484375,335.375 77.503906,337.859375 C79.234375,338.914062 74.265625,334.390625 164.09375,424.09375 C168.089844,428.089844 167.875,434.457031 164.148438,438.183594 L122.828125,478.890625 L24.597656,379.910156 L65.125,339.265625 Z" id="Shape" fill="#000000" fill-rule="nonzero"></path>
            </g>
            <g id="hand-(1)" transform="translate(885.500000, 255.500000) scale(-1, 1) translate(-885.500000, -255.500000) translate(629.000000, 4.000000)">
                <path d="M491.203125,221.09375 C478.597656,210.472656 459.796875,212.023438 449.113281,224.636719 L380.734375,294.917969 L380.804688,294.917969 C377.105469,282.207031 365.363281,272.921875 351.464844,272.921875 L238.214844,272.921875 C223.519531,266.496094 207.273438,262.925781 190.199219,262.925781 C142.890625,262.925781 101.980469,285.859375 82.445312,329.316406 L172.84375,419.253906 L173.011719,419.121094 L188.578125,404.105469 C196.027344,396.910156 205.984375,392.890625 216.339844,392.890625 L349.578125,392.890625 C370.324219,392.890625 390.253906,384.796875 405.125,370.324219 L494.746094,263.179688 C505.386719,250.589844 503.804688,231.746094 491.203125,221.09375 Z" id="Path" fill="#F0C89F"></path>
                <path d="M398.140625,100.96875 C398.140625,156.183594 353.382812,200.941406 298.167969,200.941406 C242.953125,200.941406 198.195312,156.183594 198.195312,100.96875 C198.195312,45.757812 242.953125,0.996094 298.167969,0.996094 C353.382812,0.996094 398.140625,45.757812 398.140625,100.96875 Z" id="Path"></path>
                <path d="M122.496094,493.003906 L10.246094,379.894531 L57.804688,332.195312 C65.609375,324.390625 78.277344,324.386719 86.085938,332.195312 L170.914062,417.023438 C178.769531,424.878906 178.675781,437.542969 170.914062,445.304688 L122.496094,493.003906 Z" id="Path" fill="#AEC9FD"></path>
                <path d="M235.792969,338.265625 C239.695312,334.355469 239.695312,328.027344 235.792969,324.117188 C231.886719,320.21875 225.558594,320.21875 221.648438,324.117188 C217.75,328.027344 217.75,334.355469 221.648438,338.265625 C225.558594,342.164062 231.886719,342.164062 235.792969,338.265625 Z" id="Path" fill="#000000"></path>
                <path d="M115.652344,500.042969 C119.527344,503.949219 125.835938,503.992188 129.761719,500.125 L178.230469,452.375 C186.464844,444.140625 188.96875,431.949219 185.347656,421.351562 L195.773438,411.296875 C201.386719,405.875 208.777344,402.886719 216.589844,402.886719 L349.492188,402.886719 C373.070312,402.886719 395.355469,393.832031 412.25,377.390625 C412.945312,376.714844 406.972656,383.75 502.917969,269.078125 C517.148438,252.242188 515.019531,226.960938 498.167969,212.714844 C481.421875,198.601562 456.335938,200.628906 442.066406,217.175781 L383.074219,277.808594 C375.625,268.640625 364.265625,262.925781 351.992188,262.925781 L240.511719,262.925781 C224.648438,256.289062 207.816406,252.929688 190.449219,252.929688 C142.308594,252.929688 100.273438,275.164062 77.714844,316.851562 C68.210938,315.050781 58.1875,317.925781 50.976562,325.136719 L3.417969,372.835938 C-0.464844,376.730469 -0.472656,383.03125 3.402344,386.9375 L115.652344,500.042969 Z M190.445312,272.921875 C205.757812,272.921875 220.5625,276.003906 234.457031,282.082031 C235.722656,282.636719 237.085938,282.921875 238.464844,282.921875 L351.992188,282.921875 C362.832031,282.921875 371.988281,291.761719 371.988281,302.914062 C371.988281,313.941406 363.019531,322.910156 351.992188,322.910156 L270.425781,322.910156 C264.90625,322.910156 260.429688,327.386719 260.429688,332.90625 C260.429688,338.429688 264.90625,342.902344 270.425781,342.902344 L351.992188,342.902344 C374.042969,342.902344 391.980469,324.964844 391.980469,302.914062 C391.980469,301.15625 391.855469,299.414062 391.628906,297.6875 C448.695312,239.027344 456.742188,230.785156 457.085938,230.375 C464.210938,221.964844 476.859375,220.898438 485.273438,227.992188 C493.695312,235.113281 494.761719,247.753906 487.617188,256.210938 L397.949219,363.40625 C384.855469,375.976562 367.664062,382.894531 349.492188,382.894531 L216.589844,382.894531 C203.566406,382.894531 191.238281,387.875 181.886719,396.910156 L173.390625,405.109375 L95.070312,326.792969 C113.375,292.453125 147.722656,272.921875 190.445312,272.921875 Z M65.125,339.265625 C68.421875,335.96875 73.484375,335.375 77.503906,337.859375 C79.234375,338.914062 74.265625,334.390625 164.09375,424.09375 C168.089844,428.089844 167.875,434.457031 164.148438,438.183594 L122.828125,478.890625 L24.597656,379.910156 L65.125,339.265625 Z" id="Shape" fill="#000000" fill-rule="nonzero"></path>
            </g>
        </g>
    </g>
</svg>
